<svg width="252.000000" height="76.000000" viewBox="0 0 252 76" fill="none" xmlns="http://www.w3.org/2000/svg" xmlns:xlink="http://www.w3.org/1999/xlink">
	<desc>
			Created with Pixso.
	</desc>
	<defs>
		<clipPath id="clip1_7853">
			<rect id="7941361 1" width="252.000000" height="76.000000" fill="white" fill-opacity="0"/>
		</clipPath>
		<linearGradient id="paint_linear_1_7856_0" x1="-13.082558" y1="52.298397" x2="35.377495" y2="6.759094" gradientUnits="userSpaceOnUse">
			<stop stop-color="#6A16B7"/>
			<stop offset="0.140000" stop-color="#405AD3"/>
			<stop offset="0.270000" stop-color="#1D91EA"/>
			<stop offset="0.370000" stop-color="#08B3F9"/>
			<stop offset="0.420000" stop-color="#00C0FE"/>
			<stop offset="0.990000" stop-color="#13B3BA"/>
		</linearGradient>
		<linearGradient id="paint_linear_1_7857_0" x1="30.946390" y1="15.121423" x2="30.764277" y2="6.687688" gradientUnits="userSpaceOnUse">
			<stop stop-color="#5F627B"/>
			<stop offset="0.270000" stop-color="#85879A" stop-opacity="0.760784"/>
			<stop offset="0.850000" stop-color="#E4E5E9" stop-opacity="0.168627"/>
			<stop offset="1.000000" stop-color="#FFFFFF" stop-opacity="0.000000"/>
		</linearGradient>
		<linearGradient id="paint_linear_1_7858_0" x1="3.320637" y1="71.015457" x2="52.676922" y2="24.637093" gradientUnits="userSpaceOnUse">
			<stop stop-color="#6A16B7"/>
			<stop offset="0.180000" stop-color="#405AD3"/>
			<stop offset="0.350000" stop-color="#1D91EA"/>
			<stop offset="0.480000" stop-color="#08B3F9"/>
			<stop offset="0.550000" stop-color="#00C0FE"/>
			<stop offset="0.990000" stop-color="#13B3BA"/>
		</linearGradient>
		<linearGradient id="paint_linear_1_7859_0" x1="12.122032" y1="69.451553" x2="42.857658" y2="34.377655" gradientUnits="userSpaceOnUse">
			<stop stop-color="#13B3BA"/>
			<stop offset="0.140000" stop-color="#13B3BA"/>
			<stop offset="0.270000" stop-color="#1D91EA"/>
			<stop offset="0.370000" stop-color="#08B3F9"/>
			<stop offset="0.560000" stop-color="#00C0FE"/>
			<stop offset="1.000000" stop-color="#136ABA"/>
		</linearGradient>
		<linearGradient id="paint_linear_1_7861_0" x1="55.297455" y1="24.733515" x2="55.665253" y2="45.342964" gradientUnits="userSpaceOnUse">
			<stop stop-color="#5F627B"/>
			<stop offset="0.270000" stop-color="#85879A" stop-opacity="0.760784"/>
			<stop offset="0.850000" stop-color="#E4E5E9" stop-opacity="0.168627"/>
			<stop offset="1.000000" stop-color="#FFFFFF" stop-opacity="0.000000"/>
		</linearGradient>
		<linearGradient id="paint_linear_1_7862_0" x1="6.519896" y1="65.995255" x2="6.148659" y2="45.389378" gradientUnits="userSpaceOnUse">
			<stop stop-color="#5F627B"/>
			<stop offset="0.270000" stop-color="#85879A" stop-opacity="0.760784"/>
			<stop offset="0.850000" stop-color="#E4E5E9" stop-opacity="0.168627"/>
			<stop offset="1.000000" stop-color="#FFFFFF" stop-opacity="0.000000"/>
		</linearGradient>
	</defs>
	<rect id="7941361 1" width="252.000000" height="76.000000" fill="#FFFFFF" fill-opacity="0"/>
	<g clip-path="url(#clip1_7853)">
		<path id="Vector" d="M19.8203 16.2212L19.8203 10.0476C19.8223 8.104 20.5952 6.2406 21.9695 4.86633C23.3438 3.49194 25.2073 2.71912 27.1509 2.71716L34.6492 2.71716C36.5928 2.71912 38.4561 3.49194 39.8303 4.86633C41.2046 6.2406 41.9775 8.104 41.9795 10.0476L41.9795 16.2212L44.6968 16.2212L44.6968 10.0476C44.6958 7.3833 43.6382 4.82825 41.7559 2.94263C39.8738 1.05701 37.3206 -0.00512695 34.6562 -0.0107422L27.158 -0.0107422C24.4941 -0.00793457 21.9399 1.05164 20.0564 2.9353C18.1726 4.81897 17.1133 7.37292 17.1104 10.0369L17.1104 16.2104L19.8203 16.2212Z" fill="url(#paint_linear_1_7856_0)" fill-opacity="1.000000" fill-rule="nonzero"/>
		<path id="Vector" d="M19.8203 16.2212L19.8203 10.0476C19.8223 8.104 20.5952 6.2406 21.9695 4.86633C23.3438 3.49194 25.2073 2.71912 27.1509 2.71716L34.6492 2.71716C36.5928 2.71912 38.4561 3.49194 39.8303 4.86633C41.2046 6.2406 41.9775 8.104 41.9795 10.0476L41.9795 16.2212L44.6968 16.2212L44.6968 10.0476C44.6958 7.3833 43.6382 4.82825 41.7559 2.94263C39.8738 1.05701 37.3206 -0.00512695 34.6562 -0.0107422L27.158 -0.0107422C24.4941 -0.00793457 21.9399 1.05164 20.0564 2.9353C18.1726 4.81897 17.1133 7.37292 17.1104 10.0369L17.1104 16.2104L19.8203 16.2212Z" fill="url(#paint_linear_1_7857_0)" fill-opacity="1.000000" fill-rule="nonzero"/>
		<path id="Vector" d="M50.1274 14.1931L11.6902 14.1931C8.5896 14.1931 5.61621 15.4248 3.42407 17.6171C1.23169 19.8094 0 22.7828 0 25.8832L0 64.3099C0 67.4103 1.23169 70.3838 3.42407 72.576C5.61621 74.7684 8.5896 76 11.6902 76L50.1274 76C51.6631 76.0005 53.1836 75.6985 54.6023 75.1112C56.021 74.5239 57.3101 73.6628 58.396 72.5774C59.4819 71.4917 60.3433 70.2029 60.9309 68.7843C61.5188 67.3658 61.8213 65.8453 61.8213 64.3099L61.8213 25.8832C61.8213 24.3478 61.5188 22.8274 60.9309 21.4088C60.3433 19.9902 59.4819 18.7014 58.396 17.6158C57.3101 16.5303 56.021 15.6692 54.6023 15.0819C53.1836 14.4946 51.6631 14.1926 50.1274 14.1931ZM55.3513 62.9888C55.3503 64.7234 54.6609 66.3866 53.4343 67.6132C52.2078 68.8397 50.5444 69.5292 48.8101 69.5302L13.0112 69.5302C12.1521 69.5302 11.3015 69.361 10.5081 69.0322C9.71436 68.7035 8.99316 68.2217 8.38574 67.6143C7.77832 67.0068 7.29663 66.2856 6.96777 65.4921C6.63916 64.6984 6.46997 63.8478 6.46997 62.9888L6.46997 27.2043C6.46997 25.4695 7.15918 23.8057 8.38574 22.579C9.61255 21.3522 11.2764 20.663 13.0112 20.663L48.7957 20.663C50.5303 20.6639 52.1936 21.3534 53.4199 22.58C54.6465 23.8065 55.3359 25.4697 55.3369 27.2043L55.3513 62.9888Z" fill="url(#paint_linear_1_7858_0)" fill-opacity="1.000000" fill-rule="nonzero"/>
		<path id="Vector" d="M13.6111 43.729L20.1951 38.141L20.1951 33.1672C20.1951 32.9778 20.2703 32.7961 20.4043 32.6622C20.5383 32.5283 20.72 32.4531 20.9092 32.4531L23.4443 32.4531C23.6338 32.4531 23.8154 32.5283 23.9492 32.6622C24.0833 32.7961 24.1584 32.9778 24.1584 33.1672L24.1584 34.7596L30.2571 29.5752C30.4521 29.4054 30.7019 29.3119 30.9604 29.3119C31.219 29.3119 31.4688 29.4054 31.6638 29.5752L48.217 43.6362C48.5662 43.9366 48.7856 44.3605 48.8293 44.8188C48.8733 45.2773 48.7383 45.735 48.4529 46.0963C48.3035 46.2805 48.1191 46.4331 47.9102 46.5452C47.7012 46.6572 47.4722 46.7267 47.2361 46.7493C47.0002 46.7719 46.762 46.7472 46.5356 46.6768C46.3093 46.6064 46.0991 46.4916 45.9177 46.3391L44.4536 45.093L44.4536 59.2611C44.4536 59.7004 44.2791 60.1218 43.9685 60.4326C43.6577 60.7433 43.2363 60.9178 42.7969 60.9178L19.1382 60.9178C18.6987 60.9178 18.2773 60.7433 17.9668 60.4326C17.656 60.1218 17.4814 59.7004 17.4814 59.2611L17.4814 45.093L16.1282 46.2427C15.7554 46.5491 15.283 46.7074 14.801 46.6876C14.3188 46.668 13.8611 46.4714 13.5146 46.1356C13.3511 45.9775 13.2229 45.7867 13.1382 45.5756C13.0537 45.3645 13.0146 45.1379 13.0237 44.9108C13.033 44.6835 13.0898 44.4608 13.1912 44.2571C13.2922 44.0535 13.4353 43.8735 13.6111 43.729Z" fill="url(#paint_linear_1_7859_0)" fill-opacity="1.000000" fill-rule="nonzero"/>
		<path id="Vector" d="M50.1667 29.3146C50.1667 31.7244 48.2131 33.6779 45.8035 33.6779C43.3938 33.6779 41.4402 31.7244 41.4402 29.3146C41.4402 26.9048 43.3938 24.9513 45.8035 24.9513C48.2131 24.9513 50.1667 26.9048 50.1667 29.3146Z" fill="#13B3BA" fill-opacity="1.000000" fill-rule="evenodd"/>
		<path id="Vector" d="M61.8066 29.3146L61.8066 46.282L55.3367 46.282L55.3367 27.2043C55.3357 25.4697 54.6462 23.8065 53.4197 22.58C52.1934 21.3535 50.53 20.6639 48.7954 20.6631C48.7954 20.6631 61.8066 19.7704 61.8066 29.3146Z" fill="url(#paint_linear_1_7861_0)" fill-opacity="1.000000" fill-rule="nonzero"/>
		<path id="Vector" d="M0 60.8787L0 43.9076L6.46997 43.9076L6.46997 62.9852C6.46997 64.7201 7.15918 66.3839 8.38574 67.6107C9.61255 68.8374 11.2764 69.5266 13.0112 69.5266C13.0112 69.5266 0 70.4229 0 60.8787Z" fill="url(#paint_linear_1_7862_0)" fill-opacity="1.000000" fill-rule="nonzero"/>
		<path id="HOME SHOP" d="M91.8965 31.1479L91.8965 52L88.4834 52L88.4834 42.8813L78.6689 42.8813L78.6689 52L75.2485 52L75.2485 31.1479L78.6689 31.1479L78.6689 40.0908L88.4834 40.0908L88.4834 31.1479L91.8965 31.1479ZM105.913 52.2124Q102.998 52.2124 100.551 50.8501Q98.1124 49.4805 96.6842 47.0342Q95.2633 44.5879 95.2633 41.5264Q95.2633 38.4722 96.6842 36.0405Q98.1124 33.6089 100.551 32.2466Q102.998 30.877 105.913 30.877Q108.85 30.877 111.296 32.2466Q113.742 33.6089 115.149 36.0405Q116.562 38.4722 116.562 41.5264Q116.562 44.5879 115.149 47.0342Q113.742 49.4805 111.296 50.8501Q108.85 52.2124 105.913 52.2124ZM105.913 49.2388Q107.978 49.2388 109.597 48.2939Q111.223 47.3491 112.131 45.5986Q113.046 43.8408 113.046 41.5264Q113.046 39.2192 112.131 37.4834Q111.223 35.7402 109.597 34.8101Q107.978 33.8799 105.913 33.8799Q103.84 33.8799 102.221 34.8101Q100.603 35.7402 99.6871 37.4834Q98.7716 39.2192 98.7716 41.5264Q98.7716 43.8408 99.6871 45.5986Q100.603 47.3491 102.221 48.2939Q103.84 49.2388 105.913 49.2388ZM141.877 31.1479L141.877 52L138.463 52L138.463 37.7178L132.099 52L129.733 52L123.339 37.7178L123.339 52L119.919 52L119.919 31.1479L123.61 31.1479L130.927 47.5029L138.222 31.1479L141.877 31.1479ZM149.799 33.9092L149.799 40.0322L156.999 40.0322L156.999 42.8228L149.799 42.8228L149.799 49.2095L157.9 49.2095L157.9 52L146.379 52L146.379 31.1187L157.9 31.1187L157.9 33.9092L149.799 33.9092ZM176.769 52.2124Q174.667 52.2124 172.989 51.48Q171.312 50.7402 170.353 49.3926Q169.393 48.0376 169.393 46.2432L173.048 46.2432Q173.172 47.5908 174.117 48.4624Q175.062 49.3267 176.769 49.3267Q178.541 49.3267 179.53 48.4771Q180.519 47.6201 180.519 46.2725Q180.519 45.2178 179.903 44.5586Q179.288 43.8994 178.373 43.5405Q177.457 43.1816 175.838 42.7568Q173.802 42.2222 172.528 41.6655Q171.254 41.1089 170.353 39.9443Q169.452 38.7725 169.452 36.8169Q169.452 35.0225 170.353 33.6748Q171.254 32.3198 172.872 31.6021Q174.491 30.877 176.622 30.877Q179.647 30.877 181.581 32.3931Q183.522 33.9092 183.727 36.5532L179.947 36.5532Q179.859 35.4106 178.871 34.605Q177.882 33.792 176.263 33.792Q174.791 33.792 173.861 34.5464Q172.931 35.2935 172.931 36.6997Q172.931 37.6592 173.517 38.2744Q174.103 38.8896 174.996 39.2485Q175.897 39.6074 177.457 40.0322Q179.53 40.6035 180.834 41.1748Q182.137 41.7388 183.053 42.9253Q183.968 44.1118 183.968 46.0894Q183.968 47.6787 183.111 49.0923Q182.262 50.4985 180.621 51.3555Q178.988 52.2124 176.769 52.2124ZM204.666 31.1479L204.666 52L201.253 52L201.253 42.8813L191.439 42.8813L191.439 52L188.019 52L188.019 31.1479L191.439 31.1479L191.439 40.0908L201.253 40.0908L201.253 31.1479L204.666 31.1479ZM218.683 52.2124Q215.768 52.2124 213.321 50.8501Q210.882 49.4805 209.454 47.0342Q208.033 44.5879 208.033 41.5264Q208.033 38.4722 209.454 36.0405Q210.882 33.6089 213.321 32.2466Q215.768 30.877 218.683 30.877Q221.62 30.877 224.066 32.2466Q226.512 33.6089 227.919 36.0405Q229.332 38.4722 229.332 41.5264Q229.332 44.5879 227.919 47.0342Q226.512 49.4805 224.066 50.8501Q221.62 52.2124 218.683 52.2124ZM218.683 49.2388Q220.748 49.2388 222.367 48.2939Q223.993 47.3491 224.901 45.5986Q225.816 43.8408 225.816 41.5264Q225.816 39.2192 224.901 37.4834Q223.993 35.7402 222.367 34.8101Q220.748 33.8799 218.683 33.8799Q216.61 33.8799 214.991 34.8101Q213.373 35.7402 212.457 37.4834Q211.542 39.2192 211.542 41.5264Q211.542 43.8408 212.457 45.5986Q213.373 47.3491 214.991 48.2939Q216.61 49.2388 218.683 49.2388ZM247.271 37.3589Q247.271 38.9482 246.517 40.3618Q245.77 41.7681 244.114 42.6543Q242.466 43.5405 239.888 43.5405L236.109 43.5405L236.109 52L232.689 52L232.689 31.1479L239.888 31.1479Q242.291 31.1479 243.953 31.9756Q245.623 32.8032 246.443 34.2168Q247.271 35.623 247.271 37.3589ZM239.888 40.75Q241.836 40.75 242.796 39.8638Q243.763 38.9775 243.763 37.3589Q243.763 33.9385 239.888 33.9385L236.109 33.9385L236.109 40.75L239.888 40.75Z" fill="#FFFFFF" fill-opacity="1.000000" fill-rule="evenodd"/>
		<path id="TAGLINE HERE" d="M78.8682 61.6123L78.8682 62.3066L76.5391 62.3066L76.5391 70L75.7012 70L75.7012 62.3066L73.3604 62.3066L73.3604 61.6123L78.8682 61.6123ZM85.0613 68.0078L81.2439 68.0078L80.5115 70L79.6238 70L82.6853 61.7207L83.6316 61.7207L86.6814 70L85.7908 70L85.0613 68.0078ZM84.8093 67.3105L83.1511 62.7754L81.4959 67.3105L84.8093 67.3105ZM94.6226 64.0586Q94.2652 63.2324 93.5269 62.7578Q92.7886 62.2832 91.7925 62.2832Q90.855 62.2832 90.1109 62.7168Q89.3667 63.1475 88.9361 63.9473Q88.5054 64.7441 88.5054 65.7988Q88.5054 66.8564 88.9361 67.6621Q89.3667 68.4648 90.1109 68.8984Q90.855 69.3291 91.7925 69.3291Q92.6685 69.3291 93.3687 68.9512Q94.0718 68.5732 94.4966 67.8701Q94.9243 67.167 94.9829 66.2324L91.4556 66.2324L91.4556 65.5469L95.8706 65.5469L95.8706 66.1592Q95.812 67.2637 95.2701 68.1572Q94.731 69.0508 93.8257 69.5693Q92.9204 70.085 91.7925 70.085Q90.6294 70.085 89.6802 69.54Q88.731 68.9922 88.1861 68.0137Q87.6412 67.0352 87.6412 65.7988Q87.6412 64.5654 88.1861 63.5869Q88.731 62.6084 89.6802 62.0635Q90.6294 61.5156 91.7925 61.5156Q93.1372 61.5156 94.1451 62.1895Q95.1529 62.8604 95.607 64.0586L94.6226 64.0586ZM98.2468 69.3174L101.259 69.3174L101.259 70L97.4089 70L97.4089 61.6123L98.2468 61.6123L98.2468 69.3174ZM103.299 61.6123L103.299 70L102.461 70L102.461 61.6123L103.299 61.6123ZM111.531 70L110.693 70L106.047 62.9453L106.047 70L105.209 70L105.209 61.6123L106.047 61.6123L110.693 68.6553L110.693 61.6123L111.531 61.6123L111.531 70ZM114.279 62.2949L114.279 65.4268L117.46 65.4268L117.46 66.124L114.279 66.124L114.279 69.3027L117.821 69.3027L117.821 70L113.441 70L113.441 61.6006L117.821 61.6006L117.821 62.2949L114.279 62.2949ZM128.991 61.6123L128.991 70L128.153 70L128.153 66.0771L123.603 66.0771L123.603 70L122.765 70L122.765 61.6123L123.603 61.6123L123.603 65.3799L128.153 65.3799L128.153 61.6123L128.991 61.6123ZM131.751 62.2949L131.751 65.4268L134.932 65.4268L134.932 66.124L131.751 66.124L131.751 69.3027L135.293 69.3027L135.293 70L130.913 70L130.913 61.6006L135.293 61.6006L135.293 62.2949L131.751 62.2949ZM141.411 70L139.337 66.4961L137.787 66.4961L137.787 70L136.949 70L136.949 61.6123L139.468 61.6123Q140.872 61.6123 141.598 62.2861Q142.325 62.957 142.325 64.0469Q142.325 64.9609 141.801 65.6025Q141.279 66.2441 140.259 66.4346L142.419 70L141.411 70ZM137.787 65.8105L139.48 65.8105Q140.465 65.8105 140.963 65.333Q141.461 64.8525 141.461 64.0469Q141.461 63.2207 140.98 62.7725Q140.5 62.3213 139.468 62.3213L137.787 62.3213L137.787 65.8105ZM144.831 62.2949L144.831 65.4268L148.012 65.4268L148.012 66.124L144.831 66.124L144.831 69.3027L148.373 69.3027L148.373 70L143.993 70L143.993 61.6006L148.373 61.6006L148.373 62.2949L144.831 62.2949Z" fill="#FFFFFF" fill-opacity="1.000000" fill-rule="evenodd"/>
	</g>
</svg>
