<svg width="252" height="76" viewBox="0 0 252 76" fill="none" xmlns="http://www.w3.org/2000/svg">
<g clip-path="url(#clip0_1_4649)">
<path d="M19.8204 16.2212V10.0476C19.8223 8.10407 20.5952 6.24065 21.9695 4.86634C23.3439 3.49203 25.2073 2.71911 27.1509 2.71722H34.6491C36.5927 2.71911 38.4561 3.49203 39.8304 4.86634C41.2047 6.24065 41.9776 8.10407 41.9795 10.0476V16.2212H44.6967V10.0476C44.6958 7.38338 43.6382 4.82825 41.756 2.94266C39.8737 1.05707 37.3205 -0.00503917 34.6562 -0.0107117H27.158C24.4941 -0.00787619 21.9401 1.05162 20.0564 2.93531C18.1727 4.81899 17.1132 7.373 17.1104 10.0369V16.2105L19.8204 16.2212Z" fill="url(#paint0_linear_1_4649)"/>
<path style="mix-blend-mode:multiply" d="M19.8204 16.2212V10.0476C19.8223 8.10407 20.5952 6.24065 21.9695 4.86634C23.3439 3.49203 25.2073 2.71911 27.1509 2.71722H34.6491C36.5927 2.71911 38.4561 3.49203 39.8304 4.86634C41.2047 6.24065 41.9776 8.10407 41.9795 10.0476V16.2212H44.6967V10.0476C44.6958 7.38338 43.6382 4.82825 41.756 2.94266C39.8737 1.05707 37.3205 -0.00503917 34.6562 -0.0107117H27.158C24.4941 -0.00787619 21.9401 1.05162 20.0564 2.93531C18.1727 4.81899 17.1132 7.373 17.1104 10.0369V16.2105L19.8204 16.2212Z" fill="url(#paint1_linear_1_4649)"/>
<path d="M50.1275 14.1931H11.6901C8.5897 14.1931 5.61627 15.4247 3.42395 17.617C1.23163 19.8094 0 22.7828 0 25.8832V64.3099C0 67.4103 1.23163 70.3837 3.42395 72.576C5.61627 74.7684 8.5897 76 11.6901 76H50.1275C51.663 76.0005 53.1835 75.6984 54.6022 75.1112C56.0209 74.5239 57.3101 73.6629 58.396 72.5773C59.4819 71.4917 60.3433 70.2029 60.931 68.7843C61.5187 67.3658 61.8212 65.8454 61.8212 64.3099V25.8832C61.8212 24.3477 61.5187 22.8273 60.931 21.4088C60.3433 19.9902 59.4819 18.7013 58.396 17.6158C57.3101 16.5302 56.0209 15.6692 54.6022 15.0819C53.1835 14.4946 51.663 14.1926 50.1275 14.1931ZM55.3513 62.9888C55.3503 64.7233 54.6609 66.3866 53.4343 67.6131C52.2078 68.8397 50.5445 69.5291 48.81 69.5301H13.0112C12.1522 69.5301 11.3016 69.3609 10.508 69.0322C9.71434 68.7034 8.99323 68.2216 8.38582 67.6142C7.7784 67.0068 7.29657 66.2856 6.96784 65.492C6.6391 64.6984 6.46991 63.8478 6.46991 62.9888V27.2043C6.46991 25.4694 7.15908 23.8056 8.38582 22.5789C9.61255 21.3522 11.2764 20.663 13.0112 20.663H48.7957C50.5303 20.6639 52.1935 21.3534 53.42 22.5799C54.6466 23.8065 55.336 25.4697 55.337 27.2043L55.3513 62.9888Z" fill="url(#paint2_linear_1_4649)"/>
<path d="M13.611 43.729L20.1951 38.1411V33.1672C20.1951 32.9778 20.2704 32.7962 20.4043 32.6623C20.5382 32.5283 20.7199 32.4531 20.9093 32.4531H23.4444C23.6338 32.4531 23.8154 32.5283 23.9493 32.6623C24.0833 32.7962 24.1585 32.9778 24.1585 33.1672V34.7597L30.2571 29.5752C30.4521 29.4054 30.7019 29.3119 30.9605 29.3119C31.219 29.3119 31.4689 29.4054 31.6639 29.5752L48.2171 43.6362C48.5661 43.9367 48.7855 44.3604 48.8294 44.8189C48.8734 45.2773 48.7384 45.735 48.4528 46.0963C48.3035 46.2805 48.119 46.4331 47.9101 46.5452C47.7012 46.6573 47.4721 46.7266 47.2361 46.7493C47.0001 46.7719 46.762 46.7472 46.5356 46.6768C46.3093 46.6064 46.0992 46.4916 45.9177 46.3391L44.4537 45.093V59.2611C44.4537 59.7005 44.2792 60.1219 43.9685 60.4326C43.6578 60.7433 43.2364 60.9178 42.797 60.9178H19.1382C18.6988 60.9178 18.2774 60.7433 17.9667 60.4326C17.656 60.1219 17.4815 59.7005 17.4815 59.2611V45.093L16.1282 46.2427C15.7555 46.549 15.283 46.7074 14.801 46.6877C14.3189 46.6679 13.861 46.4714 13.5146 46.1356C13.3511 45.9775 13.2228 45.7867 13.1383 45.5756C13.0537 45.3645 13.0147 45.1379 13.0238 44.9107C13.0329 44.6835 13.0899 44.4608 13.1911 44.2571C13.2923 44.0535 13.4354 43.8735 13.611 43.729Z" fill="url(#paint3_linear_1_4649)"/>
<path d="M45.8034 33.6778C48.2132 33.6778 50.1667 31.7243 50.1667 29.3146C50.1667 26.9048 48.2132 24.9513 45.8034 24.9513C43.3937 24.9513 41.4402 26.9048 41.4402 29.3146C41.4402 31.7243 43.3937 33.6778 45.8034 33.6778Z" fill="#13B3BA"/>
<path style="mix-blend-mode:multiply" d="M61.8066 29.3145V46.282H55.3367V27.2043C55.3358 25.4698 54.6463 23.8065 53.4198 22.58C52.1932 21.3534 50.53 20.664 48.7954 20.663C48.7954 20.663 61.8066 19.7704 61.8066 29.3145Z" fill="url(#paint4_linear_1_4649)"/>
<path style="mix-blend-mode:multiply" d="M0 60.8785V43.9075H6.46991V62.9852C6.46991 64.7201 7.15908 66.3839 8.38582 67.6106C9.61255 68.8373 11.2764 69.5265 13.0112 69.5265C13.0112 69.5265 0 70.4227 0 60.8785Z" fill="url(#paint5_linear_1_4649)"/>
<path d="M91.9 31.15V52H88.48V42.88H78.67V52H75.25V31.15H78.67V40.09H88.48V31.15H91.9ZM105.912 52.21C103.972 52.21 102.182 51.76 100.542 50.86C98.9223 49.94 97.6323 48.67 96.6723 47.05C95.7323 45.41 95.2623 43.57 95.2623 41.53C95.2623 39.49 95.7323 37.66 96.6723 36.04C97.6323 34.42 98.9223 33.16 100.542 32.26C102.182 31.34 103.972 30.88 105.912 30.88C107.872 30.88 109.662 31.34 111.282 32.26C112.922 33.16 114.212 34.42 115.152 36.04C116.092 37.66 116.562 39.49 116.562 41.53C116.562 43.57 116.092 45.41 115.152 47.05C114.212 48.67 112.922 49.94 111.282 50.86C109.662 51.76 107.872 52.21 105.912 52.21ZM105.912 49.24C107.292 49.24 108.522 48.93 109.602 48.31C110.682 47.67 111.522 46.77 112.122 45.61C112.742 44.43 113.052 43.07 113.052 41.53C113.052 39.99 112.742 38.64 112.122 37.48C111.522 36.32 110.682 35.43 109.602 34.81C108.522 34.19 107.292 33.88 105.912 33.88C104.532 33.88 103.302 34.19 102.222 34.81C101.142 35.43 100.292 36.32 99.6723 37.48C99.0723 38.64 98.7723 39.99 98.7723 41.53C98.7723 43.07 99.0723 44.43 99.6723 45.61C100.292 46.77 101.142 47.67 102.222 48.31C103.302 48.93 104.532 49.24 105.912 49.24ZM141.888 31.15V52H138.468V37.72L132.108 52H129.738L123.348 37.72V52H119.928V31.15H123.618L130.938 47.5L138.228 31.15H141.888ZM149.803 33.91V40.03H157.003V42.82H149.803V49.21H157.903V52H146.383V31.12H157.903V33.91H149.803ZM176.778 52.21C175.378 52.21 174.118 51.97 172.998 51.49C171.878 50.99 170.998 50.29 170.358 49.39C169.718 48.49 169.398 47.44 169.398 46.24H173.058C173.138 47.14 173.488 47.88 174.108 48.46C174.748 49.04 175.638 49.33 176.778 49.33C177.958 49.33 178.878 49.05 179.538 48.49C180.198 47.91 180.528 47.17 180.528 46.27C180.528 45.57 180.318 45 179.898 44.56C179.498 44.12 178.988 43.78 178.368 43.54C177.768 43.3 176.928 43.04 175.848 42.76C174.488 42.4 173.378 42.04 172.518 41.68C171.678 41.3 170.958 40.72 170.358 39.94C169.758 39.16 169.458 38.12 169.458 36.82C169.458 35.62 169.758 34.57 170.358 33.67C170.958 32.77 171.798 32.08 172.878 31.6C173.958 31.12 175.208 30.88 176.628 30.88C178.648 30.88 180.298 31.39 181.578 32.41C182.878 33.41 183.598 34.79 183.738 36.55H179.958C179.898 35.79 179.538 35.14 178.878 34.6C178.218 34.06 177.348 33.79 176.268 33.79C175.288 33.79 174.488 34.04 173.868 34.54C173.248 35.04 172.938 35.76 172.938 36.7C172.938 37.34 173.128 37.87 173.508 38.29C173.908 38.69 174.408 39.01 175.008 39.25C175.608 39.49 176.428 39.75 177.468 40.03C178.848 40.41 179.968 40.79 180.828 41.17C181.708 41.55 182.448 42.14 183.048 42.94C183.668 43.72 183.978 44.77 183.978 46.09C183.978 47.15 183.688 48.15 183.108 49.09C182.548 50.03 181.718 50.79 180.618 51.37C179.538 51.93 178.258 52.21 176.778 52.21ZM204.664 31.15V52H201.244V42.88H191.434V52H188.014V31.15H191.434V40.09H201.244V31.15H204.664ZM218.676 52.21C216.736 52.21 214.946 51.76 213.306 50.86C211.686 49.94 210.396 48.67 209.436 47.05C208.496 45.41 208.026 43.57 208.026 41.53C208.026 39.49 208.496 37.66 209.436 36.04C210.396 34.42 211.686 33.16 213.306 32.26C214.946 31.34 216.736 30.88 218.676 30.88C220.636 30.88 222.426 31.34 224.046 32.26C225.686 33.16 226.976 34.42 227.916 36.04C228.856 37.66 229.326 39.49 229.326 41.53C229.326 43.57 228.856 45.41 227.916 47.05C226.976 48.67 225.686 49.94 224.046 50.86C222.426 51.76 220.636 52.21 218.676 52.21ZM218.676 49.24C220.056 49.24 221.286 48.93 222.366 48.31C223.446 47.67 224.286 46.77 224.886 45.61C225.506 44.43 225.816 43.07 225.816 41.53C225.816 39.99 225.506 38.64 224.886 37.48C224.286 36.32 223.446 35.43 222.366 34.81C221.286 34.19 220.056 33.88 218.676 33.88C217.296 33.88 216.066 34.19 214.986 34.81C213.906 35.43 213.056 36.32 212.436 37.48C211.836 38.64 211.536 39.99 211.536 41.53C211.536 43.07 211.836 44.43 212.436 45.61C213.056 46.77 213.906 47.67 214.986 48.31C216.066 48.93 217.296 49.24 218.676 49.24ZM247.271 37.36C247.271 38.42 247.021 39.42 246.521 40.36C246.021 41.3 245.221 42.07 244.121 42.67C243.021 43.25 241.611 43.54 239.891 43.54H236.111V52H232.691V31.15H239.891C241.491 31.15 242.841 31.43 243.941 31.99C245.061 32.53 245.891 33.27 246.431 34.21C246.991 35.15 247.271 36.2 247.271 37.36ZM239.891 40.75C241.191 40.75 242.161 40.46 242.801 39.88C243.441 39.28 243.761 38.44 243.761 37.36C243.761 35.08 242.471 33.94 239.891 33.94H236.111V40.75H239.891Z" fill="#001219"/>
<path d="M78.868 61.612V62.308H76.54V70H75.7V62.308H73.36V61.612H78.868ZM85.0544 68.008H81.2384L80.5064 70H79.6184L82.6784 61.72H83.6264L86.6744 70H85.7864L85.0544 68.008ZM84.8024 67.312L83.1464 62.776L81.4904 67.312H84.8024ZM94.6225 64.06C94.3825 63.508 94.0145 63.076 93.5185 62.764C93.0305 62.444 92.4545 62.284 91.7905 62.284C91.1665 62.284 90.6065 62.428 90.1105 62.716C89.6145 63.004 89.2225 63.416 88.9345 63.952C88.6465 64.48 88.5025 65.096 88.5025 65.8C88.5025 66.504 88.6465 67.124 88.9345 67.66C89.2225 68.196 89.6145 68.608 90.1105 68.896C90.6065 69.184 91.1665 69.328 91.7905 69.328C92.3745 69.328 92.8985 69.204 93.3625 68.956C93.8345 68.7 94.2105 68.34 94.4905 67.876C94.7785 67.404 94.9425 66.856 94.9825 66.232H91.4545V65.548H95.8705V66.16C95.8305 66.896 95.6305 67.564 95.2705 68.164C94.9105 68.756 94.4265 69.224 93.8185 69.568C93.2185 69.912 92.5425 70.084 91.7905 70.084C91.0145 70.084 90.3105 69.904 89.6785 69.544C89.0465 69.176 88.5465 68.668 88.1785 68.02C87.8185 67.364 87.6385 66.624 87.6385 65.8C87.6385 64.976 87.8185 64.24 88.1785 63.592C88.5465 62.936 89.0465 62.428 89.6785 62.068C90.3105 61.7 91.0145 61.516 91.7905 61.516C92.6865 61.516 93.4705 61.74 94.1425 62.188C94.8145 62.636 95.3025 63.26 95.6065 64.06H94.6225ZM98.2492 69.316H101.261V70H97.4092V61.612H98.2492V69.316ZM103.3 61.612V70H102.46V61.612H103.3ZM111.526 70H110.686L106.042 62.944V70H105.202V61.612H106.042L110.686 68.656V61.612H111.526V70ZM114.269 62.296V65.428H117.449V66.124H114.269V69.304H117.809V70H113.429V61.6H117.809V62.296H114.269ZM128.985 61.612V70H128.145V66.076H123.597V70H122.757V61.612H123.597V65.38H128.145V61.612H128.985ZM131.741 62.296V65.428H134.921V66.124H131.741V69.304H135.281V70H130.901V61.6H135.281V62.296H131.741ZM141.401 70L139.325 66.496H137.777V70H136.937V61.612H139.457C140.393 61.612 141.101 61.836 141.581 62.284C142.069 62.732 142.313 63.32 142.313 64.048C142.313 64.656 142.137 65.176 141.785 65.608C141.441 66.032 140.929 66.308 140.249 66.436L142.409 70H141.401ZM137.777 65.812H139.469C140.125 65.812 140.617 65.652 140.945 65.332C141.281 65.012 141.449 64.584 141.449 64.048C141.449 63.496 141.289 63.072 140.969 62.776C140.649 62.472 140.145 62.32 139.457 62.32H137.777V65.812ZM144.82 62.296V65.428H148V66.124H144.82V69.304H148.36V70H143.98V61.6H148.36V62.296H144.82Z" fill="#02274B"/>
</g>
<defs>
<linearGradient id="paint0_linear_1_4649" x1="-13.0826" y1="52.2984" x2="35.3775" y2="6.75913" gradientUnits="userSpaceOnUse">
<stop stop-color="#6A16B7"/>
<stop offset="0.14" stop-color="#405AD3"/>
<stop offset="0.27" stop-color="#1D91EA"/>
<stop offset="0.37" stop-color="#08B3F9"/>
<stop offset="0.42" stop-color="#00C0FE"/>
<stop offset="0.99" stop-color="#13B3BA"/>
</linearGradient>
<linearGradient id="paint1_linear_1_4649" x1="30.9464" y1="15.1214" x2="30.7643" y2="6.68772" gradientUnits="userSpaceOnUse">
<stop stop-color="#5F627B"/>
<stop offset="0.27" stop-color="#85879A" stop-opacity="0.76"/>
<stop offset="0.85" stop-color="#E4E5E9" stop-opacity="0.17"/>
<stop offset="1" stop-color="white" stop-opacity="0"/>
</linearGradient>
<linearGradient id="paint2_linear_1_4649" x1="3.32065" y1="71.0154" x2="52.6769" y2="24.6371" gradientUnits="userSpaceOnUse">
<stop stop-color="#6A16B7"/>
<stop offset="0.18" stop-color="#405AD3"/>
<stop offset="0.35" stop-color="#1D91EA"/>
<stop offset="0.48" stop-color="#08B3F9"/>
<stop offset="0.55" stop-color="#00C0FE"/>
<stop offset="0.99" stop-color="#13B3BA"/>
</linearGradient>
<linearGradient id="paint3_linear_1_4649" x1="12.122" y1="69.4516" x2="42.8577" y2="34.3777" gradientUnits="userSpaceOnUse">
<stop stop-color="#13B3BA"/>
<stop offset="0.14" stop-color="#13B3BA"/>
<stop offset="0.27" stop-color="#1D91EA"/>
<stop offset="0.37" stop-color="#08B3F9"/>
<stop offset="0.56" stop-color="#00C0FE"/>
<stop offset="1" stop-color="#136ABA"/>
</linearGradient>
<linearGradient id="paint4_linear_1_4649" x1="55.2975" y1="24.7335" x2="55.6652" y2="45.3429" gradientUnits="userSpaceOnUse">
<stop stop-color="#5F627B"/>
<stop offset="0.27" stop-color="#85879A" stop-opacity="0.76"/>
<stop offset="0.85" stop-color="#E4E5E9" stop-opacity="0.17"/>
<stop offset="1" stop-color="white" stop-opacity="0"/>
</linearGradient>
<linearGradient id="paint5_linear_1_4649" x1="6.5199" y1="65.9952" x2="6.14855" y2="45.3893" gradientUnits="userSpaceOnUse">
<stop stop-color="#5F627B"/>
<stop offset="0.27" stop-color="#85879A" stop-opacity="0.76"/>
<stop offset="0.85" stop-color="#E4E5E9" stop-opacity="0.17"/>
<stop offset="1" stop-color="white" stop-opacity="0"/>
</linearGradient>
<clipPath id="clip0_1_4649">
<rect width="252" height="76" fill="white"/>
</clipPath>
</defs>
</svg>
