<?xml version="1.0" encoding="utf-8"?>
<!-- Generator: Adobe Illustrator 27.5.0, SVG Export Plug-In . SVG Version: 6.00 Build 0)  -->
<svg version="1.1" xmlns="http://www.w3.org/2000/svg" xmlns:xlink="http://www.w3.org/1999/xlink" x="0px" y="0px"
	 viewBox="0 0 1122 1122" style="enable-background:new 0 0 1122 1122;" xml:space="preserve">
<g id="Bg">
	<g>
		<g>
			<rect style="fill:#FFFFFF;" width="1122" height="1122"/>
		</g>
	</g>
</g>
<g id="Object">
	<g>
		<rect x="212.166" y="442.915" style="fill:none;" width="13.853" height="47.266"/>
		<path style="fill:none;" d="M423.553,597.551c0,81.476,66.04,147.525,147.519,147.525c81.467,0,147.537-66.049,147.537-147.525
			c0-81.473-66.07-147.519-147.537-147.519C489.592,450.033,423.553,516.078,423.553,597.551z M669.417,597.551
			c0,54.318-44.034,98.382-98.346,98.382c-54.335,0-98.37-44.065-98.37-98.382c0-54.335,44.035-98.334,98.37-98.334
			C625.383,499.217,669.417,543.216,669.417,597.551z"/>
		<path style="fill:#616E7D;" d="M265.315,815.758h611.494c21.702,0,39.32-17.569,39.32-39.242V398.299
			c0-21.702-17.618-39.296-39.32-39.296h-17.968v-17.43c0-3.477-2.851-6.264-6.276-6.264h-97.469c-3.456,0-6.233,2.787-6.233,6.264
			v17.43h-73.835l-31.398-47.539c0-3.991-3.759-7.223-8.425-7.223h-42.824H549.75h-42.794c-4.648,0-8.455,3.232-8.455,7.223
			l-31.35,47.539H265.315c-21.679,0-39.296,17.594-39.296,39.296v26.299h-15.571c-9.163,0-16.577,7.444-16.577,16.604v50.698
			c0,9.132,7.414,16.576,16.577,16.576h15.571v268.039C226.019,798.189,243.637,815.758,265.315,815.758z M699.32,408.419h81.34
			h81.309v59.534H780.66h-81.34V408.419z M571.071,450.033c81.467,0,147.537,66.046,147.537,147.519
			c0,81.476-66.07,147.525-147.537,147.525c-81.479,0-147.519-66.049-147.519-147.525
			C423.553,516.078,489.592,450.033,571.071,450.033z M212.166,490.182v-47.266h13.853v47.266H212.166z"/>
		<path style="fill:#616E7D;" d="M472.701,597.551c0,54.318,44.035,98.382,98.37,98.382c54.311,0,98.346-44.065,98.346-98.382
			c0-54.335-44.034-98.334-98.346-98.334C516.736,499.217,472.701,543.216,472.701,597.551z"/>
		<rect x="699.32" y="408.419" style="fill:#82BFAB;" width="81.34" height="59.534"/>
		<rect x="780.66" y="408.419" style="fill:#AAD4C8;" width="81.309" height="59.534"/>
	</g>
</g>
</svg>
