<?xml version="1.0" encoding="UTF-8" standalone="no"?>
<!DOCTYPE svg PUBLIC "-//W3C//DTD SVG 1.1//EN" "http://www.w3.org/Graphics/SVG/1.1/DTD/svg11.dtd">
<svg width="100%" height="100%" viewBox="0 0 1122 1122" version="1.1" xmlns="http://www.w3.org/2000/svg" xmlns:xlink="http://www.w3.org/1999/xlink" xml:space="preserve" xmlns:serif="http://www.serif.com/" style="fill-rule:evenodd;clip-rule:evenodd;stroke-linejoin:round;stroke-miterlimit:2;">
    <g id="Bg">
    </g>
    <g id="Object">
        <g>
            <rect x="212.166" y="442.915" width="13.853" height="47.266" style="fill:none;"/>
            <path d="M423.553,597.551C423.553,679.027 489.593,745.076 571.072,745.076C652.539,745.076 718.609,679.027 718.609,597.551C718.609,516.078 652.539,450.032 571.072,450.032C489.592,450.033 423.553,516.078 423.553,597.551ZM669.417,597.551C669.417,651.869 625.383,695.933 571.071,695.933C516.736,695.933 472.701,651.868 472.701,597.551C472.701,543.216 516.736,499.217 571.071,499.217C625.383,499.217 669.417,543.216 669.417,597.551Z" style="fill:none;fill-rule:nonzero;"/>
            <path d="M265.315,815.758L876.809,815.758C898.511,815.758 916.129,798.189 916.129,776.516L916.129,398.299C916.129,376.597 898.511,359.003 876.809,359.003L858.841,359.003L858.841,341.573C858.841,338.096 855.99,335.309 852.565,335.309L755.096,335.309C751.64,335.309 748.863,338.096 748.863,341.573L748.863,359.003L675.028,359.003L643.63,311.464C643.63,307.473 639.871,304.241 635.205,304.241L506.956,304.241C502.308,304.241 498.501,307.473 498.501,311.464L467.151,359.003L265.315,359.003C243.636,359.003 226.019,376.597 226.019,398.299L226.019,424.598L210.448,424.598C201.285,424.598 193.871,432.042 193.871,441.202L193.871,491.9C193.871,501.032 201.285,508.476 210.448,508.476L226.019,508.476L226.019,776.515C226.019,798.189 243.637,815.758 265.315,815.758ZM699.32,408.419L861.969,408.419L861.969,467.953L699.32,467.953L699.32,408.419ZM571.071,450.033C652.538,450.033 718.608,516.079 718.608,597.552C718.608,679.028 652.538,745.077 571.071,745.077C489.592,745.077 423.552,679.028 423.552,597.552C423.553,516.078 489.592,450.033 571.071,450.033ZM212.166,490.182L212.166,442.916L226.019,442.916L226.019,490.182L212.166,490.182Z" style="fill:rgb(97,110,125);fill-rule:nonzero;"/>
            <path d="M472.701,597.551C472.701,651.869 516.736,695.933 571.071,695.933C625.382,695.933 669.417,651.868 669.417,597.551C669.417,543.216 625.383,499.217 571.071,499.217C516.736,499.217 472.701,543.216 472.701,597.551Z" style="fill:rgb(97,110,125);fill-rule:nonzero;"/>
            <rect x="699.32" y="408.419" width="81.34" height="59.534" style="fill:rgb(130,191,171);"/>
            <rect x="780.66" y="408.419" width="81.309" height="59.534" style="fill:rgb(170,212,200);"/>
        </g>
    </g>
</svg>
